<svg width="47" height="36" viewBox="0 0 47 36" fill="none" xmlns="http://www.w3.org/2000/svg">
<path d="M17.3707 2.97418H29.9629V24.8367H17.3707V2.97418Z" fill="#FF5F00"/>
<path d="M8.8562 35.8409V33.5234C8.8562 32.6348 8.29643 32.0556 7.33695 32.0556C6.85731 32.0556 6.3376 32.2101 5.97777 32.7123C5.69806 32.2873 5.29836 32.0556 4.69871 32.0556C4.29882 32.0556 3.89929 32.1714 3.57934 32.5963V32.1328H2.73987V35.8409H3.57934V33.7937C3.57934 33.1372 3.93917 32.828 4.49894 32.828C5.05835 32.828 5.33842 33.1757 5.33842 33.7937V35.8409H6.17789V33.7937C6.17789 33.1372 6.57742 32.828 7.09713 32.828C7.6569 32.828 7.93661 33.1757 7.93661 33.7937V35.8409H8.8562ZM21.2883 32.1328H19.9293V31.0127H19.0898V32.1328H18.3303V32.8666H19.0896V34.5663C19.0896 35.4162 19.4494 35.9182 20.4089 35.9182C20.7687 35.9182 21.1683 35.8024 21.4483 35.6479L21.2083 34.9525C20.9685 35.107 20.6888 35.1457 20.4889 35.1457C20.0892 35.1457 19.9293 34.914 19.9293 34.5276V32.8666H21.2883V32.1328ZM28.404 32.0554C27.9243 32.0554 27.6046 32.2873 27.4046 32.5963V32.1328H26.5651V35.8409H27.4046V33.7551C27.4046 33.1372 27.6843 32.7895 28.204 32.7895C28.3639 32.7895 28.5639 32.8282 28.7237 32.8668L28.9636 32.0943C28.8037 32.0556 28.5639 32.0556 28.404 32.0556V32.0554ZM17.6507 32.4418C17.2508 32.1714 16.6912 32.0556 16.0915 32.0556C15.1322 32.0556 14.4927 32.5191 14.4927 33.253C14.4927 33.8711 14.9724 34.2186 15.8118 34.3346L16.2115 34.3733C16.6513 34.4503 16.8911 34.5663 16.8911 34.7595C16.8911 35.0298 16.5714 35.223 16.0116 35.223C15.452 35.223 15.0122 35.0298 14.7324 34.8367L14.3326 35.4547C14.7724 35.7637 15.3721 35.9182 15.9715 35.9182C17.0909 35.9182 17.7306 35.4162 17.7306 34.7208C17.7306 34.0641 17.2109 33.7164 16.4113 33.6007L16.0116 33.562C15.6518 33.5232 15.3721 33.4462 15.3721 33.2144C15.3721 32.944 15.6518 32.7895 16.0915 32.7895C16.5714 32.7895 17.051 32.9825 17.2908 33.0985L17.6507 32.4418ZM39.9569 32.0556C39.477 32.0556 39.1573 32.2873 38.9573 32.5963V32.1328H38.1179V35.8409H38.9573V33.7551C38.9573 33.1372 39.2372 32.7895 39.7567 32.7895C39.9168 32.7895 40.1167 32.8282 40.2766 32.8668L40.5165 32.0943C40.3566 32.0556 40.1168 32.0556 39.9569 32.0556ZM29.2434 33.9869C29.2434 35.107 30.0429 35.9182 31.2822 35.9182C31.8418 35.9182 32.2415 35.8024 32.6412 35.4934L32.2415 34.8367C31.9218 35.0685 31.602 35.1843 31.2422 35.1843C30.5626 35.1843 30.0829 34.7208 30.0829 33.9869C30.0829 33.2917 30.5626 32.828 31.2422 32.7895C31.602 32.7895 31.9218 32.9053 32.2415 33.1372L32.6412 32.4805C32.2415 32.1714 31.8418 32.0556 31.2822 32.0556C30.0429 32.0556 29.2434 32.8668 29.2434 33.9869ZM36.9987 33.9869V32.1328H36.1592V32.5963C35.8793 32.2488 35.4796 32.0556 34.9599 32.0556C33.8806 32.0556 33.0411 32.8668 33.0411 33.9869C33.0411 35.107 33.8806 35.9182 34.9599 35.9182C35.5195 35.9182 35.9194 35.7251 36.1592 35.3774V35.8409H36.9987V33.9869ZM33.9205 33.9869C33.9205 33.3302 34.3602 32.7895 35.0797 32.7895C35.7593 32.7895 36.2391 33.2917 36.2391 33.9869C36.2391 34.6435 35.7593 35.1843 35.0797 35.1843C34.3602 35.1455 33.9205 34.6435 33.9205 33.9869ZM23.8868 32.0556C22.7675 32.0556 21.9679 32.828 21.9679 33.9869C21.9679 35.1457 22.7673 35.9182 23.9267 35.9182C24.4863 35.9182 25.0461 35.7637 25.4858 35.4162L25.0859 34.8367C24.7662 35.0685 24.3665 35.223 23.9668 35.223C23.4471 35.223 22.9273 34.9912 22.8073 34.3344H25.6457V34.0256C25.6858 32.828 24.9661 32.0556 23.8866 32.0556H23.8868ZM23.8868 32.7508C24.4064 32.7508 24.7664 33.06 24.8461 33.6394H22.8474C22.9273 33.1372 23.2872 32.7508 23.8868 32.7508ZM44.7138 33.9869V30.665H43.8744V32.5963C43.5945 32.2488 43.1948 32.0556 42.6751 32.0556C41.5958 32.0556 40.7563 32.8668 40.7563 33.9869C40.7563 35.107 41.5958 35.9182 42.6751 35.9182C43.2348 35.9182 43.6345 35.7251 43.8744 35.3774V35.8409H44.7138V33.9869ZM41.6358 33.9869C41.6358 33.3302 42.0754 32.7895 42.7951 32.7895C43.4747 32.7895 43.9543 33.2917 43.9543 33.9869C43.9543 34.6435 43.4747 35.1843 42.7951 35.1843C42.0754 35.1455 41.6358 34.6435 41.6358 33.9869ZM13.5731 33.9869V32.1328H12.7336V32.5963C12.4537 32.2488 12.054 32.0556 11.5343 32.0556C10.455 32.0556 9.61556 32.8668 9.61556 33.9869C9.61556 35.107 10.455 35.9182 11.5343 35.9182C12.0941 35.9182 12.4938 35.7251 12.7336 35.3774V35.8409H13.5731V33.9869ZM10.455 33.9869C10.455 33.3302 10.8948 32.7895 11.6143 32.7895C12.2939 32.7895 12.7737 33.2917 12.7737 33.9869C12.7737 34.6435 12.2939 35.1843 11.6143 35.1843C10.8948 35.1455 10.455 34.6435 10.455 33.9869Z" fill="white"/>
<path d="M18.17 13.9055C18.17 9.46353 20.3286 5.52356 23.6465 2.97416C21.2082 1.12013 18.1302 0 14.7723 0C6.8169 0 0.380981 6.21876 0.380981 13.9055C0.380981 21.5921 6.8169 27.811 14.7721 27.811C18.13 27.811 21.208 26.6909 23.6465 24.8367C20.3286 22.326 18.17 18.3475 18.17 13.9055Z" fill="#EB001B"/>
<path d="M46.9519 13.9055C46.9519 21.5921 40.516 27.811 32.5608 27.811C29.2029 27.811 26.1249 26.6909 23.6864 24.8367C27.0443 22.2874 29.163 18.3475 29.163 13.9055C29.163 9.46353 27.0042 5.52356 23.6864 2.97416C26.1247 1.12013 29.2029 0 32.5608 0C40.516 0 46.9521 6.25747 46.9521 13.9055H46.9519Z" fill="#F79E1B"/>
</svg>
